<?xml version="1.0" encoding="utf-8"?>
<!-- Generator: Adobe Illustrator 17.0.0, SVG Export Plug-In . SVG Version: 6.00 Build 0)  -->
<!DOCTYPE svg PUBLIC "-//W3C//DTD SVG 1.1//EN" "http://www.w3.org/Graphics/SVG/1.1/DTD/svg11.dtd">
<svg version="1.1" id="Layer_1" xmlns="http://www.w3.org/2000/svg" xmlns:xlink="http://www.w3.org/1999/xlink" x="0px" y="0px"
	 width="154.384px" height="195.326px" viewBox="0 0 154.384 195.326" enable-background="new 0 0 154.384 195.326"
	 xml:space="preserve">
<path stroke="#231F20" stroke-miterlimit="10" d="M77.997,0.627L77.19,0.543L0.5,8.583v140.568l76.692,45.633l76.692-45.633V8.583
	L77.997,0.627z M143.852,143.447l-66.66,39.663l-66.66-39.663V85.832l66.374,39.506l0.111,7.159l-45.534-27.1l-0.067,6.951
	l45.715,27.475l0.113,7.35l-45.7-27.186l-0.066,6.95l45.714,27.475l46.152-27.615v-6.982l-0.058,0.034v-2.386v-2.864V97.143
	l20.565-12.281L143.852,143.447L143.852,143.447z M143.798,77.388l-18.236,10.744l-8.419,4.96L76.994,69.207l-0.066,6.951
	l34.316,20.407l-0.304,0.18l-0.739,0.435l-4.876,2.872L76.993,83.198l-0.066,6.951l22.362,13.298l-5.276,3.529l-0.128,0.077
	l-16.892-9.951l-0.066,6.95l11.084,6.527l-11.291,6.779L10.676,78.099l66.139-39.755v0.007L143.798,77.388z M143.852,70.396
	l-67.02-39.508v-0.01l-0.008,0.005l-0.008-0.005v0.01L10.532,70.35V17.619l66.661-6.989l66.659,6.989L143.852,70.396L143.852,70.396
	z"/>
</svg>
