<?xml version="1.0" encoding="utf-8"?>
<!-- Generator: Adobe Illustrator 17.0.0, SVG Export Plug-In . SVG Version: 6.00 Build 0)  -->
<!DOCTYPE svg PUBLIC "-//W3C//DTD SVG 1.1//EN" "http://www.w3.org/Graphics/SVG/1.1/DTD/svg11.dtd">
<svg version="1.1" id="Layer_1" xmlns="http://www.w3.org/2000/svg" xmlns:xlink="http://www.w3.org/1999/xlink" x="0px" y="0px" fill="#f25b26" width="26.752px" height="26.752px" viewBox="0 0 26.752 26.752" enable-background="new 0 0 26.752 26.752" xml:space="preserve">
<path d="M15.497,13.376L26.311,2.562c0.586-0.585,0.586-1.535,0-2.121c-0.586-0.586-1.535-0.586-2.121,0L13.376,11.255L2.562,0.439
	c-0.586-0.586-1.535-0.586-2.121,0c-0.586,0.585-0.586,1.535,0,2.121l10.814,10.815L0.439,24.19c-0.586,0.586-0.586,1.535,0,2.121
	C0.732,26.604,1.116,26.75,1.5,26.75c0.384,0,0.768-0.146,1.061-0.439l10.815-10.814L24.19,26.311
	c0.293,0.293,0.677,0.44,1.061,0.44c0.384,0,0.768-0.146,1.06-0.44c0.586-0.586,0.586-1.535,0-2.121L15.497,13.376z"/>
</svg>
