<svg xmlns="http://www.w3.org/2000/svg" xmlns:xlink="http://www.w3.org/1999/xlink"><symbol id="icon-facebook" viewBox="0 0 8.672 18.943">
<path d="M6.275,3.357c0.8,0,1.599,0,2.397,0c0-1.119,0-2.237,0-3.356c-0.959,0-1.92,0-2.877,0C2.656,0.181,1.54,2.387,1.948,6.116H0
	v3.517h1.958c0,3.103,0,6.208,0,9.312c1.279,0,2.558,0,3.837,0c0-3.104,0-6.208,0-9.312h2.856V6.116H5.786
	C5.765,5.07,5.751,3.709,6.275,3.357z"/>
</symbol><symbol id="icon-htmlacademy-logo" viewBox="0 0 154.384 195.326">
<path stroke="#231F20" stroke-miterlimit="10" d="M77.997,0.627L77.19,0.543L0.5,8.583v140.568l76.692,45.633l76.692-45.633V8.583
	L77.997,0.627z M143.852,143.447l-66.66,39.663l-66.66-39.663V85.832l66.374,39.506l0.111,7.159l-45.534-27.1l-0.067,6.951
	l45.715,27.475l0.113,7.35l-45.7-27.186l-0.066,6.95l45.714,27.475l46.152-27.615v-6.982l-0.058,0.034v-2.386v-2.864V97.143
	l20.565-12.281L143.852,143.447L143.852,143.447z M143.798,77.388l-18.236,10.744l-8.419,4.96L76.994,69.207l-0.066,6.951
	l34.316,20.407l-0.304,0.18l-0.739,0.435l-4.876,2.872L76.993,83.198l-0.066,6.951l22.362,13.298l-5.276,3.529l-0.128,0.077
	l-16.892-9.951l-0.066,6.95l11.084,6.527l-11.291,6.779L10.676,78.099l66.139-39.755v0.007L143.798,77.388z M143.852,70.396
	l-67.02-39.508v-0.01l-0.008,0.005l-0.008-0.005v0.01L10.532,70.35V17.619l66.661-6.989l66.659,6.989L143.852,70.396L143.852,70.396
	z"/>
</symbol><symbol id="icon-twitter" viewBox="0 0 17.5 14.663">
<g id="W6EeEF_1_">
	<g>
		<path d="M11.283,0.153c1.736-0.485,3.074,0.263,3.685,1.151c0.694-0.226,1.372-0.47,2.072-0.692
			c-0.004,0.841-0.538,1.478-0.883,1.727C16.861,2.506,17.5,1.86,17.5,1.86c-0.175,0.976-1.035,1.746-1.611,1.977
			C15.65,10.429,12.617,14.792,5.507,14.66c-0.538,0,0.077,0-0.46,0c-0.422,0-4.29-0.449-5.047-1.843
			c2.341,0.192,4.011-0.412,4.835-1.149c-0.989-0.293-2.761-0.465-3.07-2.881c0.362,0.104,0.583,0.223,1.228,0.116
			C1.757,8.067,0.385,7.366,0.461,5.218c0.294,0.32,1.1,0.523,1.381,0.462c-0.725-0.235-2.03-3.281-0.921-4.836
			C2.794,2.654,4.769,4.364,8.29,4.528C8.506,2.288,9.461,0.787,11.283,0.153z"/>
	</g>
</g>
</symbol><symbol id="icon-youtube" viewBox="0 0 14.641 13.96">
<path d="M1.775,13.78C0.799,14.257,0,13.757,0,12.671V1.29c0-1.088,0.799-1.585,1.775-1.109l12.133,5.932
	c0.975,0.478,0.975,1.258,0,1.736L1.775,13.78z"/>
</symbol></svg>